Coordinates
version=1
nRows=34
nColumns=38
inDegrees=no

Units are S.I. units (second, meters, Newtons, ...)
If the header above contains a line with 'inDegrees', this indicates whether rotational values are in degrees (yes) or radians (no).

endheader
time	pelvis_tilt	pelvis_list	pelvis_rotation	pelvis_tx	pelvis_ty	pelvis_tz	hip_flexion_r	hip_adduction_r	hip_rotation_r	knee_angle_r	ankle_angle_r	subtalar_angle_r	mtp_angle_r	hip_flexion_l	hip_adduction_l	hip_rotation_l	knee_angle_l	ankle_angle_l	subtalar_angle_l	mtp_angle_l	lumbar_extension	lumbar_bending	lumbar_rotation	arm_flex_r	arm_add_r	arm_rot_r	elbow_flex_r	pro_sup_r	wrist_flex_r	wrist_dev_r	arm_flex_l	arm_add_l	arm_rot_l	elbow_flex_l	pro_sup_l	wrist_flex_l	wrist_dev_l
1.37	3.13376	1.20554	-1.44551	0.778489	0.809235	0.939438	-0.409972	-0.00231839	-0.209723	0.787084	-0.514564	0	0	-0.113148	0.00397516	-0.14199	0.292441	-0.358892	0	0	-0.370723	0.0916189	0.192654	-0.18336	-0.716992	-0.0967482	1.62476	0.60315	0	0	0.531424	-0.4979	0.631528	1.11906	0.807648	0	0
1.38	-3.13861	1.20427	-1.45697	0.777605	0.819031	0.940193	-0.381283	-0.0190252	-0.205823	0.842066	-0.566783	0	0	-0.122608	0.00702004	-0.147837	0.302425	-0.347027	0	0	-0.373332	0.0878179	0.19184	-0.184784	-0.719074	-0.0975028	1.62768	0.599416	0	0	0.531482	-0.499263	0.632501	1.12173	0.804775	0	0
1.39	-3.13215	1.20311	-1.46451	0.776786	0.828665	0.940803	-0.351119	-0.0329944	-0.19932	0.897567	-0.604186	0	0	-0.131688	0.008127	-0.153208	0.312592	-0.335245	0	0	-0.375775	0.0857943	0.191137	-0.185559	-0.721562	-0.0981156	1.63143	0.593522	0	0	0.531794	-0.501187	0.633693	1.12477	0.802577	0	0
1.4	-3.12951	1.2016	-1.46883	0.776131	0.838132	0.941487	-0.320618	-0.0441115	-0.190727	0.950972	-0.637021	0	0	-0.141572	0.00780941	-0.157225	0.321364	-0.322559	0	0	-0.378444	0.0852066	0.19071	-0.185051	-0.724539	-0.097845	1.63473	0.587628	0	0	0.532556	-0.503372	0.635483	1.12736	0.79946	0	0
1.41	-3.12936	1.19873	-1.4711	0.775662	0.847417	0.942478	-0.291797	-0.0525384	-0.181241	1.00005	-0.661978	0	0	-0.154744	0.00659001	-0.159055	0.325709	-0.312221	0	0	-0.382386	0.0855384	0.190562	-0.183149	-0.7278	-0.0960119	1.63717	0.585279	0	0	0.533969	-0.505086	0.63736	1.12848	0.796304	0	0
1.42	-3.13147	1.19589	-1.47107	0.775273	0.856589	0.943733	-0.263464	-0.0585883	-0.171676	1.0446	-0.680617	0	0	-0.169216	0.00485973	-0.16008	0.325762	-0.304039	0	0	-0.386248	0.0867839	0.19027	-0.180343	-0.73048	-0.0936126	1.63858	0.583593	0	0	0.535246	-0.50603	0.638697	1.1281	0.792935	0	0
1.43	-3.13573	1.19295	-1.46824	0.77483	0.865687	0.945209	-0.235491	-0.0634008	-0.164022	1.08599	-0.681814	0	0	-0.184552	0.00263605	-0.16211	0.323267	-0.298328	0	0	-0.389891	0.0892958	0.189382	-0.176948	-0.732464	-0.0910518	1.63893	0.58168	0	0	0.536156	-0.506047	0.639295	1.12645	0.789837	0	0
1.44	3.14068	1.19054	-1.46198	0.774236	0.87479	0.946758	-0.208024	-0.0665238	-0.157588	1.12272	-0.662324	0	0	-0.20011	-0.000319224	-0.164132	0.319647	-0.293455	0	0	-0.392499	0.0933471	0.187847	-0.17374	-0.734501	-0.0884009	1.63867	0.580193	0	0	0.53646	-0.50503	0.63891	1.124	0.787489	0	0
1.45	3.13208	1.1887	-1.45246	0.773579	0.88393	0.948296	-0.181291	-0.0677519	-0.152574	1.15443	-0.624045	0	0	-0.21619	-0.00433987	-0.163084	0.31529	-0.287034	0	0	-0.393952	0.0984577	0.185278	-0.17073	-0.736268	-0.0855978	1.63777	0.57888	0	0	0.536286	-0.503684	0.637741	1.12151	0.786715	0	0
1.46	3.12183	1.1869	-1.44008	0.772857	0.893142	0.949817	-0.156403	-0.0670895	-0.149065	1.17872	-0.584555	0	0	-0.232259	-0.00904377	-0.161769	0.310381	-0.281096	0	0	-0.394851	0.104682	0.181915	-0.168149	-0.737974	-0.0831861	1.63648	0.578418	0	0	0.535753	-0.502285	0.636193	1.11941	0.78688	0	0
1.47	3.11152	1.18527	-1.42631	0.772042	0.902401	0.951299	-0.132564	-0.0659256	-0.147775	1.19606	-0.553931	0	0	-0.248119	-0.0140092	-0.159587	0.304283	-0.276799	0	0	-0.395314	0.111306	0.177675	-0.166148	-0.739469	-0.0813177	1.63472	0.57932	0	0	0.535261	-0.501079	0.635002	1.11796	0.787481	0	0
1.48	3.1017	1.18413	-1.41193	0.771187	0.91169	0.952696	-0.10893	-0.0648918	-0.148573	1.20774	-0.52631	0	0	-0.263297	-0.0192431	-0.156134	0.297968	-0.272859	0	0	-0.395016	0.117862	0.17244	-0.16433	-0.740291	-0.0790226	1.63268	0.580537	0	0	0.534571	-0.500423	0.633888	1.11732	0.788019	0	0
1.49	3.08971	1.17865	-1.39554	0.770508	0.920506	0.954387	-0.0905877	-0.0610355	-0.148766	1.2119	-0.50299	0	0	-0.282424	-0.0270384	-0.153052	0.290537	-0.270823	0	0	-0.400317	0.125719	0.168056	-0.161168	-0.740992	-0.0775709	1.63106	0.579446	0	0	0.535705	-0.500278	0.633162	1.11794	0.787713	0	0
1.5	3.08257	1.18312	-1.38236	0.769495	0.929958	0.955017	-0.0624448	-0.0629016	-0.153007	1.21582	-0.480219	0	0	-0.290159	-0.0311679	-0.146466	0.284925	-0.268276	0	0	-0.393771	0.130782	0.160891	-0.160942	-0.739641	-0.0772062	1.6291	0.57761	0	0	0.533954	-0.500651	0.632124	1.11903	0.788529	0	0
1.51	3.07434	1.18501	-1.36854	0.768717	0.939053	0.955781	-0.0381187	-0.0625157	-0.157468	1.21246	-0.458115	0	0	-0.299988	-0.0366385	-0.141386	0.279721	-0.265688	0	0	-0.390299	0.136152	0.15451	-0.158889	-0.739708	-0.0752086	1.62652	0.579409	0	0	0.533793	-0.500848	0.63145	1.11984	0.7897	0	0
1.52	3.06761	1.18669	-1.35635	0.767971	0.948063	0.95638	-0.0153118	-0.0631938	-0.162485	1.20462	-0.43536	0	0	-0.309773	-0.0415696	-0.137324	0.276071	-0.262016	0	0	-0.387489	0.140933	0.148365	-0.157309	-0.739524	-0.0741212	1.62482	0.580899	0	0	0.533929	-0.500809	0.630193	1.12103	0.790821	0	0
1.53	3.06277	1.18809	-1.34629	0.767265	0.957023	0.956828	0.00583523	-0.0653528	-0.168418	1.19355	-0.411534	0	0	-0.320687	-0.0456924	-0.132805	0.271772	-0.257499	0	0	-0.385412	0.144916	0.142562	-0.156323	-0.738642	-0.0743057	1.62387	0.580366	0	0	0.534683	-0.500601	0.62867	1.12187	0.793034	0	0
1.54	3.05941	1.189	-1.33802	0.766559	0.965953	0.957104	0.0251215	-0.0684172	-0.17474	1.17941	-0.386723	0	0	-0.332733	-0.0488039	-0.128687	0.265901	-0.252765	0	0	-0.384118	0.148456	0.137326	-0.155955	-0.738279	-0.0755359	1.62356	0.579555	0	0	0.535819	-0.499841	0.626825	1.12248	0.795822	0	0
1.55	3.05706	1.18945	-1.33129	0.765918	0.974909	0.957222	0.0426625	-0.0720889	-0.181454	1.16219	-0.362195	0	0	-0.345234	-0.0513957	-0.126298	0.259969	-0.247639	0	0	-0.383502	0.151662	0.13277	-0.15623	-0.737887	-0.0777496	1.62416	0.577336	0	0	0.53683	-0.498684	0.624573	1.12347	0.797285	0	0
1.56	3.0554	1.18945	-1.32586	0.76543	0.983908	0.957218	0.0583982	-0.0758823	-0.188017	1.14177	-0.339089	0	0	-0.35867	-0.0537902	-0.123634	0.253969	-0.242624	0	0	-0.383379	0.154324	0.128941	-0.156647	-0.738541	-0.0791892	1.62497	0.577372	0	0	0.538229	-0.497669	0.622614	1.12457	0.799599	0	0
1.57	3.0537	1.18963	-1.32121	0.765054	0.992915	0.957077	0.0727919	-0.0791249	-0.193231	1.11739	-0.318083	0	0	-0.372514	-0.0559579	-0.120254	0.247398	-0.237968	0	0	-0.383224	0.15674	0.12573	-0.156837	-0.738921	-0.0802555	1.626	0.578622	0	0	0.539561	-0.496649	0.620297	1.12553	0.802665	0	0
1.58	3.05268	1.19028	-1.3178	0.764812	1.002	0.95678	0.0860255	-0.0821497	-0.198101	1.08783	-0.301291	0	0	-0.386452	-0.0578663	-0.117117	0.239627	-0.233702	0	0	-0.3826	0.158566	0.122742	-0.156953	-0.737729	-0.0821656	1.62676	0.579597	0	0	0.540653	-0.495842	0.617919	1.12647	0.805946	0	0
1.59	3.05243	1.19164	-1.31577	0.76472	1.01117	0.95635	0.0981386	-0.0845536	-0.20273	1.05296	-0.288936	0	0	-0.399992	-0.0592976	-0.114933	0.231302	-0.229805	0	0	-0.381334	0.159574	0.120239	-0.157349	-0.735243	-0.0850962	1.62709	0.580624	0	0	0.54157	-0.495059	0.615516	1.12712	0.809869	0	0
1.6	3.05227	1.1933	-1.31459	0.764772	1.02039	0.955826	0.109082	-0.0863404	-0.207457	1.0143	-0.281322	0	0	-0.413379	-0.0608019	-0.113247	0.224067	-0.226616	0	0	-0.379919	0.160051	0.1187	-0.158145	-0.732323	-0.0887916	1.62716	0.581914	0	0	0.542494	-0.493999	0.613337	1.12758	0.813413	0	0
1.61	3.05091	1.19149	-1.31348	0.765137	1.02945	0.955588	0.114428	-0.0852469	-0.211801	0.969869	-0.27745	0	0	-0.430722	-0.0636363	-0.113902	0.215825	-0.223951	0	0	-0.382921	0.161138	0.119296	-0.158569	-0.729209	-0.0933927	1.62756	0.583355	0	0	0.544378	-0.492575	0.611025	1.12811	0.816864	0	0
1.62	3.05515	1.19671	-1.31805	0.765162	1.03881	0.954527	0.126755	-0.090214	-0.217043	0.927848	-0.27513	0	0	-0.44101	-0.061381	-0.112349	0.207863	-0.220413	0	0	-0.378821	0.15901	0.119132	-0.161491	-0.726461	-0.0984888	1.62896	0.586037	0	0	0.544169	-0.490663	0.607688	1.12912	0.820607	0	0
1.63	3.0575	1.20113	-1.32154	0.765549	1.04817	0.953649	0.136246	-0.092968	-0.2225	0.882534	-0.271893	0	0	-0.452733	-0.0603502	-0.111687	0.19777	-0.218045	0	0	-0.375566	0.157036	0.119808	-0.163127	-0.722976	-0.10226	1.6289	0.58917	0	0	0.54376	-0.488644	0.60376	1.12955	0.825198	0	0
1.64	3.05858	1.2063	-1.3242	0.765936	1.05755	0.952589	0.144672	-0.0949684	-0.228648	0.835863	-0.263947	0	0	-0.463382	-0.0593743	-0.110989	0.188055	-0.215604	0	0	-0.37152	0.155406	0.120606	-0.16422	-0.72022	-0.105274	1.62863	0.591754	0	0	0.542927	-0.486667	0.599744	1.12991	0.830723	0	0
1.65	3.0595	1.21242	-1.32658	0.766307	1.06693	0.951375	0.152015	-0.0969331	-0.236617	0.787945	-0.248771	0	0	-0.472792	-0.0580747	-0.108202	0.178605	-0.212775	0	0	-0.366501	0.153816	0.120877	-0.164458	-0.718643	-0.107203	1.62765	0.595762	0	0	0.541537	-0.484365	0.595015	1.12976	0.836766	0	0
1.66	3.05991	1.21923	-1.32854	0.7667	1.07643	0.950053	0.157695	-0.0984247	-0.246287	0.73779	-0.229194	0	0	-0.480321	-0.0569614	-0.106697	0.172203	-0.209244	0	0	-0.360559	0.152529	0.120667	-0.163782	-0.717603	-0.107763	1.62623	0.598733	0	0	0.53948	-0.482605	0.590564	1.12966	0.841073	0	0
1.67	3.05949	1.22629	-1.32962	0.767141	1.08604	0.948643	0.160787	-0.0986983	-0.256363	0.683882	-0.207039	0	0	-0.486399	-0.0563037	-0.10665	0.168321	-0.204785	0	0	-0.35384	0.15164	0.120013	-0.162218	-0.716767	-0.106665	1.62408	0.602072	0	0	0.536881	-0.48108	0.586145	1.12914	0.845617	0	0
1.68	3.059	1.23317	-1.33042	0.767616	1.09573	0.947172	0.161083	-0.0976052	-0.267698	0.626051	-0.187984	0	0	-0.491724	-0.0561493	-0.107905	0.166202	-0.200254	0	0	-0.347118	0.150716	0.119538	-0.161268	-0.715996	-0.105834	1.62189	0.605084	0	0	0.534916	-0.479854	0.583461	1.12848	0.849244	0	0
1.69	3.05803	1.24014	-1.33054	0.768114	1.10551	0.945629	0.15931	-0.0948425	-0.279055	0.563882	-0.170871	0	0	-0.495988	-0.0565003	-0.109976	0.16589	-0.19557	0	0	-0.340017	0.14999	0.119064	-0.160774	-0.715015	-0.105555	1.61968	0.608445	0	0	0.532762	-0.478527	0.581094	1.12769	0.852115	0	0
1.7	3.05544	1.24845	-1.32904	0.768787	1.1155	0.944024	0.157337	-0.089852	-0.288861	0.498368	-0.157242	0	0	-0.497349	-0.0574444	-0.113298	0.168757	-0.190133	0	0	-0.328941	0.150173	0.114846	-0.153342	-0.713207	-0.0973764	1.61291	0.612429	0	0	0.526608	-0.47817	0.575248	1.12474	0.854066	0	0
